# xmcd
#
# Track frame offsets:
#	150
#	20742
#	36379
#	56959
#	70717
#	84289
#	97281
#	113335
#	129955
#	150041
#	168072
#
# Disc length: 2499 seconds
#
# Revision: 1
# Processed by: cddbd v1.5PL3 Copyright (c) Steve Scherf et al.
# Submitted via: audiograbber 1.82.02
#
DISCID=7f09c10b
DTITLE=Gary Allen - See If I Care
DYEAR=1900
DGENRE=Country
TTITLE0=A Showmans Life
TTITLE1=Cant Do It Today
TTITLE2=Dont Look Away
TTITLE3=Drinkin Dark Whiskey
TTITLE4=Guys Like Me
TTITLE5=I Can Love You
TTITLE6=Nothin On But The Radio
TTITLE7=See If I Care
TTITLE8=Songs About The Rain
TTITLE9=Tough Little Boys
TTITLE10=You Dont Know A Thing About Me
EXTD=
EXTT0=
EXTT1=
EXTT2=
EXTT3=
EXTT4=
EXTT5=
EXTT6=
EXTT7=
EXTT8=
EXTT9=
EXTT10=
PLAYORDER=
